<?xml version="1.0" encoding="iso-8859-1"?>
<!-- Uploaded to: SVG Repo, www.svgrepo.com, Generator: SVG Repo Mixer Tools -->
<svg fill="#000000" height="800px" width="800px" version="1.1" id="Layer_1" xmlns="http://www.w3.org/2000/svg" xmlns:xlink="http://www.w3.org/1999/xlink" 
	 viewBox="0 0 512.001 512.001" xml:space="preserve">
<g>
	<g>
		<path d="M429.124,242.769H291.303v-98.631h7.504c10.191,0,18.453-8.262,18.453-18.453V34.57c0-10.191-8.262-18.453-18.453-18.453
			H18.453C8.262,16.118,0,24.379,0,34.57v91.115c0,10.191,8.262,18.453,18.453,18.453h7.504c0,9.098,0,324.436,0,333.293
			c0,10.191,8.262,18.453,18.453,18.453h449.14c10.191,0,18.453-8.262,18.453-18.453c0-5.122,0-146.027,0-151.786
			C512,279.947,474.822,242.769,429.124,242.769z M291.303,307.184v-27.51h67.967v27.51c0,10.191,8.262,18.453,18.453,18.453
			c10.191,0,18.453-8.262,18.453-18.453v-27.51h32.949c25.349,0,45.971,20.623,45.971,45.971v60.428H183.629L62.862,265.306V144.138
			h191.536c0,15.894,0,158.143,0,163.047c0,10.191,8.262,18.453,18.453,18.453C283.041,325.637,291.303,317.375,291.303,307.184z
			 M131.437,386.072H62.862v-68.576L131.437,386.072z M36.905,107.233v-54.21h243.449v54.21
			C272.228,107.233,54.963,107.233,36.905,107.233z M475.096,458.978h-0.001H62.862v-36h412.235V458.978z"/>
	</g>
</g>
</svg>